<svg width="52" height="51" viewBox="0 0 52 51" fill="none" xmlns="http://www.w3.org/2000/svg">
<rect y="0.5" width="52" height="50" rx="8.66667" fill="#F7FBFF"/>
<path d="M32 21.5C32 19.9087 31.3679 18.3826 30.2426 17.2574C29.1174 16.1321 27.5913 15.5 26 15.5C24.4087 15.5 22.8826 16.1321 21.7574 17.2574C20.6321 18.3826 20 19.9087 20 21.5C20 28.5 17 30.5 17 30.5H35C35 30.5 32 28.5 32 21.5Z" stroke="#2881CF" stroke-width="2" stroke-linecap="round" stroke-linejoin="round"/>
<path d="M27.73 34.5C27.5542 34.8031 27.3019 35.0547 26.9982 35.2295C26.6946 35.4044 26.3504 35.4965 26 35.4965C25.6496 35.4965 25.3054 35.4044 25.0018 35.2295C24.6982 35.0547 24.4458 34.8031 24.27 34.5" stroke="#2881CF" stroke-width="2" stroke-linecap="round" stroke-linejoin="round"/>
</svg>
